# xmcd
#
# Track frame offsets:
# 150
# 12515
# 25494
# 37930
# 50807
# 63679
# 75857
# 89257
# 102839
# 116820
# 130440
# 137337
#
# Disc length: 2005 seconds
#
#
# Revision: 0
# Processed by: cddbd v1.5.2PL0 Copyright (c) Steve Scherf et al.
# Submitted via: FreeRIP 2.944 
#
DISCID=9e07d30c
DTITLE=Hank Williams I saw the light - I saw the light
DYEAR=1900
DGENRE=Country
TTITLE0=I saw the light
TTITLE1=Calling you
TTITLE2=Dear brother
TTITLE3=How can you refuse him now
TTITLE4=Pictures from life's other side
TTITLE5=Lost highway
TTITLE6=Be careful of stones that you throw
TTITLE7=I dreamed about mama last night
TTITLE8=The funerel
TTITLE9=Beyond the sunset
TTITLE10=Last night I dreamed of heaven
TTITLE11=Help me understand
EXTD=
EXTT0=
EXTT1=
EXTT2=
EXTT3=
EXTT4=
EXTT5=
EXTT6=
EXTT7=
EXTT8=
EXTT9=
EXTT10=
EXTT11=
PLAYORDER=
